<svg viewBox="0 0 48 48" fill="none" xmlns="http://www.w3.org/2000/svg">
  <path fill-rule="evenodd" clip-rule="evenodd" d="M12 8a2 2 0 012-2h20a2 2 0 012 2v2h4a2 2 0 012 2v4c0 4.418-3.582 8-8 8h-1.07A10.001 10.001 0 0126 30.93V36h4a2 2 0 012 2v4a2 2 0 01-2 2H18a2 2 0 01-2-2v-4a2 2 0 012-2h4v-5.07A10.001 10.001 0 0115.07 24H14c-4.418 0-8-3.582-8-8v-4a2 2 0 012-2h4V8zm-2 6H8v2a4 4 0 004 4h.268A10.08 10.08 0 0110 14zm28 0h-2a10.08 10.08 0 01-2.268 6H34a4 4 0 004-4v-2zM16 10v8a8 8 0 1016 0v-8H16z" fill="currentColor"/>
</svg>
